<svg width="48" height="48" viewBox="0 0 48 48" fill="none" xmlns="http://www.w3.org/2000/svg">
<g opacity="0.5" clip-path="url(#clip0)">
<path d="M19.2207 16.8585L16.7812 31.174H20.6827L23.1242 16.8585H19.2207Z" fill="white"/>
<path d="M13.5095 16.8733L9.68832 26.6361L9.28091 25.162C8.52731 23.3858 6.38791 20.835 3.87622 19.2274L7.3703 31.1657L11.4986 31.1587L17.6428 16.8703L13.5095 16.8733Z" fill="white"/>
<path d="M7.79897 17.8996C7.57219 17.0276 6.91491 16.7677 6.09909 16.7366H0.0501735L0 17.0216C4.70728 18.1635 7.82205 20.915 9.11452 24.2235L7.79897 17.8996Z" fill="white"/>
<path d="M31.0306 19.6006C32.3071 19.5805 33.2323 19.8595 33.9507 20.1485L34.303 20.314L34.8308 17.2113C34.0581 16.9213 32.8469 16.6102 31.3357 16.6102C27.4804 16.6102 24.763 18.5519 24.7419 21.3346C24.7168 23.3907 26.6776 24.5386 28.1587 25.224C29.679 25.9264 30.1887 26.373 30.1817 27.0002C30.1697 27.9585 28.9695 28.398 27.8486 28.398C26.2862 28.398 25.4564 28.1822 24.1749 27.6484L23.6722 27.4196L23.1233 30.6237C24.0364 31.0241 25.7213 31.3683 27.4703 31.3863C31.5715 31.3863 34.2367 29.4677 34.2648 26.4944C34.2819 24.8678 33.2413 23.6265 30.9865 22.608C29.6218 21.9437 28.7869 21.5021 28.7949 20.8318C28.7949 20.2368 29.5034 19.6006 31.0306 19.6006Z" fill="white"/>
<path d="M44.8449 16.8728H41.8305C40.8943 16.8728 40.1979 17.1277 39.7864 18.0609L33.9934 31.1803H38.0906C38.0906 31.1803 38.7589 29.4162 38.9104 29.0298C39.359 29.0298 43.3397 29.0359 43.9067 29.0359C44.0231 29.5356 44.3823 31.1803 44.3823 31.1803H48.0018L44.8449 16.8728ZM40.0333 26.0997C40.3544 25.2779 41.5877 22.0989 41.5877 22.0989C41.5666 22.138 41.9058 21.271 42.1075 20.7321L42.3704 21.9664C42.3704 21.9664 43.118 25.3842 43.2745 26.0997H40.0333Z" fill="white"/>
</g>
<defs>
<clipPath id="clip0">
<rect width="48" height="48" fill="white"/>
</clipPath>
</defs>
</svg>
