<svg width="33" height="33" viewBox="0 0 33 33" fill="none" xmlns="http://www.w3.org/2000/svg">
<g opacity="0.5">
<path d="M22.3871 5.86523C20.2108 5.86523 18.1856 6.52412 16.5 7.65205C14.8141 6.52412 12.7892 5.86523 10.6129 5.86523C4.76097 5.86523 0 10.6257 0 16.4771C0 22.3285 4.76097 27.0889 10.6129 27.0889C12.7892 27.0889 14.8144 26.4301 16.5 25.3021C18.1859 26.4301 20.2108 27.0889 22.3871 27.0889C28.239 27.0889 33 22.3285 33 16.4771C33 10.6257 28.239 5.86523 22.3871 5.86523V5.86523ZM22.3871 25.1553C19.2269 25.1553 16.4559 23.4574 14.9383 20.9264H16.0536C16.5876 20.9264 17.0204 20.4936 17.0204 19.9596C17.0204 19.4258 16.5876 18.9928 16.0536 18.9928H14.0802C13.9609 18.5995 13.8685 18.1949 13.8056 17.7803H17.6007C18.1345 17.7803 18.5675 17.3475 18.5675 16.8135C18.5675 16.2797 18.1345 15.8467 17.6007 15.8467H13.7308C13.7605 15.434 13.8197 15.0292 13.9055 14.6344H16.0536C16.5876 14.6344 17.0204 14.2013 17.0204 13.6676C17.0204 13.1336 16.5876 12.7008 16.0536 12.7008H14.5737C15.9806 9.80216 18.9543 7.79883 22.3871 7.79883C27.1728 7.79883 31.0664 11.6919 31.0664 16.4771C31.0664 21.2622 27.1728 25.1553 22.3871 25.1553Z" fill="white"/>
</g>
</svg>
