<svg width="47" height="47" viewBox="0 0 47 47" fill="none" xmlns="http://www.w3.org/2000/svg">
<path d="M33.4141 45.1641C33.4141 46.1781 32.5922 47 31.5781 47H9.17969C5.13023 47 1.83594 43.7057 1.83594 39.6562V19.2773C1.83594 18.2633 2.65781 17.4414 3.67188 17.4414C4.68594 17.4414 5.50781 18.2633 5.50781 19.2773V39.6562C5.50781 41.6808 7.15514 43.3281 9.17969 43.3281H31.5781C32.5922 43.3281 33.4141 44.15 33.4141 45.1641ZM47 5.50781V11.0156C47 12.0297 46.1781 12.8516 45.1641 12.8516V26.2539C45.1641 27.268 44.3422 28.0898 43.3281 28.0898C42.3141 28.0898 41.4922 27.268 41.4922 26.2539V12.8516H1.83594C0.821869 12.8516 0 12.0297 0 11.0156V5.50781C0 2.47063 2.47063 0 5.50781 0H41.4922C44.5294 0 47 2.47063 47 5.50781ZM3.67188 9.17969H43.3281V5.50781C43.3281 4.49554 42.5045 3.67188 41.4922 3.67188H5.50781C4.49554 3.67188 3.67188 4.49554 3.67188 5.50781V9.17969ZM27.5391 20.1953C28.5531 20.1953 29.375 19.3734 29.375 18.3594C29.375 17.3453 28.5531 16.5234 27.5391 16.5234H19.2773C18.2633 16.5234 17.4414 17.3453 17.4414 18.3594C17.4414 19.3734 18.2633 20.1953 19.2773 20.1953H27.5391ZM38.876 30.752H29.1921L31.4921 28.4775C32.2132 27.7643 32.2196 26.6017 31.5064 25.881C30.7935 25.1602 29.631 25.1534 28.9103 25.8666L25.5009 29.238C24.6267 30.1026 24.1444 31.254 24.1426 32.4803C24.1408 33.7067 24.6199 34.8591 25.4916 35.7262L28.9063 39.122C29.2649 39.4784 29.7329 39.6562 30.2012 39.6562C30.6727 39.6562 31.1442 39.4755 31.5032 39.1148C32.2182 38.3958 32.2146 37.2337 31.4957 36.5187L29.3893 34.4238H38.876C41.3308 34.4238 43.3281 36.4211 43.3281 38.876C43.3281 41.3308 41.3538 43.3281 38.9269 43.3281C37.9128 43.3281 37.091 44.15 37.091 45.1641C37.091 46.1781 37.9128 47 38.9269 47C41.0974 47 43.1313 46.1523 44.6531 44.6133C46.1667 43.0829 47 41.0454 47 38.876C47 34.3962 43.3557 30.752 38.876 30.752Z" fill="#521010"/>
</svg>
