<svg width="60" height="60" viewBox="0 0 60 60" fill="none" xmlns="http://www.w3.org/2000/svg">
<path d="M9.2891 20.7109H1.75781C0.787031 20.7109 0 21.498 0 22.4688V41.2969C0 42.2677 0.787031 43.0547 1.75781 43.0547H9.2891C10.2599 43.0547 11.0469 42.2677 11.0469 41.2969V22.4688C11.0469 21.498 10.2599 20.7109 9.2891 20.7109Z" fill="#521010"/>
<path d="M42.2384 41.047C43.2091 41.047 43.9962 40.2599 43.9962 39.2891V35.3985H44.1211C45.0919 35.3985 45.8789 34.6115 45.8789 33.6407C45.8789 32.6699 45.0919 31.8829 44.1211 31.8829H43.9962V22.3438C43.9962 21.633 43.568 20.992 42.9111 20.7199C42.2545 20.4477 41.4984 20.598 40.9956 21.1007C40.9955 21.1007 35.5073 26.5871 32.9053 29.1872C31.7366 30.3623 31.0664 31.9856 31.0664 33.6407C31.0664 34.6115 31.8534 35.3985 32.8242 35.3985H40.4805V39.2891C40.4805 40.2599 41.2675 41.047 42.2384 41.047ZM35.2037 31.8829C35.2635 31.8088 35.327 31.7378 35.3941 31.6702C36.7107 30.3545 38.7698 28.2965 40.4804 26.5865V31.8829H35.2037Z" fill="#521010"/>
<path d="M27.992 39.2891C27.992 38.3183 27.205 37.5313 26.2342 37.5313H19.1998C19.2595 37.4572 19.323 37.3861 19.3901 37.3186C21.9885 34.722 27.477 29.2353 27.477 29.2353C27.8068 28.9057 27.9921 28.4585 27.9921 27.9922V27.0508C27.9921 23.4861 25.0921 20.5859 21.5274 20.5859C17.9288 20.5859 15.0625 23.5009 15.0625 27.0488V27.0507C15.0625 28.0215 15.8495 28.8076 16.8203 28.8076C17.7911 28.8076 18.5781 28.0196 18.5781 27.0488C18.5781 25.4362 19.8766 24.1016 21.5274 24.1016C23.1536 24.1016 24.4765 25.4246 24.4765 27.0508V27.2639C23.0512 28.6887 19.0198 32.7186 16.9013 34.8357C15.7326 36.0107 15.0625 37.634 15.0625 39.2891C15.0625 40.2598 15.8495 41.0469 16.8203 41.0469H26.2343C27.205 41.0469 27.992 40.2598 27.992 39.2891Z" fill="#521010"/>
<path d="M30.0001 3.51562C38.8227 3.51562 46.2566 9.57516 48.3588 17.751C49.0674 17.3961 49.8661 17.1953 50.7111 17.1953H51.8423C49.4632 7.34203 40.5736 0 30.0001 0C19.4266 0 10.537 7.34203 8.15796 17.1953H9.28917C10.1342 17.1953 10.9327 17.3961 11.6415 17.751C13.7436 9.57516 21.1775 3.51562 30.0001 3.51562Z" fill="#521010"/>
<path d="M48.0153 45.8267C46.2582 49.8775 42.2205 52.7185 37.5312 52.7185H35.2351C34.499 50.5323 32.4311 48.9529 30.0001 48.9529C26.9545 48.9529 24.4766 51.4307 24.4766 54.4763C24.4766 57.5219 26.9544 59.9997 30 59.9997C32.431 59.9997 34.4989 58.4202 35.235 56.2341H37.5311C43.9121 56.2341 49.3705 52.2119 51.5064 46.57H50.7109C49.7265 46.57 48.8047 46.2981 48.0153 45.8267Z" fill="#521010"/>
<path d="M58.2422 20.7109H50.7109C49.7402 20.7109 48.9531 21.498 48.9531 22.4688V41.2969C48.9531 42.2677 49.7402 43.0547 50.7109 43.0547H58.2422C59.213 43.0547 60 42.2677 60 41.2969V22.4688C60 21.498 59.213 20.7109 58.2422 20.7109Z" fill="#521010"/>
</svg>
