<svg width="60" height="60" viewBox="0 0 60 60" fill="none" xmlns="http://www.w3.org/2000/svg">
<path d="M45.315 35.6724C41.1446 35.6724 37.752 39.0651 37.752 43.2354C37.752 47.4058 41.1446 50.7985 45.315 50.7985C49.4861 50.7985 52.878 47.4058 52.878 43.2354C52.878 39.0651 49.4854 35.6724 45.315 35.6724ZM45.315 47.0169C43.2295 47.0169 41.5335 45.3209 41.5335 43.2354C41.5335 41.1499 43.2295 39.4539 45.315 39.4539C47.4005 39.4539 49.0965 41.1499 49.0965 43.2354C49.0965 45.321 47.4005 47.0169 45.315 47.0169Z" fill="#521010"/>
<path d="M19.4749 35.6724C15.3046 35.6724 11.9119 39.0651 11.9119 43.2354C11.9119 47.4058 15.3046 50.7985 19.4749 50.7985C23.6453 50.7985 27.038 47.4058 27.038 43.2354C27.038 39.0651 23.6453 35.6724 19.4749 35.6724ZM19.4749 47.0169C17.3894 47.0169 15.6934 45.3209 15.6934 43.2354C15.6934 41.1499 17.3894 39.4539 19.4749 39.4539C21.5598 39.4539 23.2564 41.1499 23.2564 43.2354C23.2564 45.321 21.5604 47.0169 19.4749 47.0169Z" fill="#521010"/>
<path d="M50.4082 14.0246C50.0868 13.3862 49.4332 12.9834 48.7185 12.9834H38.7605V16.7649H47.5525L52.701 27.0052L56.0805 25.306L50.4082 14.0246Z" fill="#521010"/>
<path d="M39.6429 41.4077H25.3362V45.1892H39.6429V41.4077Z" fill="#521010"/>
<path d="M13.8024 41.4077H7.24788C6.20351 41.4077 5.35718 42.2542 5.35718 43.2984C5.35718 44.3428 6.20362 45.1891 7.24788 45.1891H13.8025C14.8469 45.1891 15.6932 44.3427 15.6932 43.2984C15.6932 42.254 14.8468 41.4077 13.8024 41.4077Z" fill="#521010"/>
<path d="M59.6029 29.8487L55.8839 25.0588C55.5266 24.5974 54.9751 24.3276 54.3908 24.3276H40.6512V11.0924C40.6512 10.048 39.8048 9.20166 38.7605 9.20166H7.24788C6.20351 9.20166 5.35718 10.0481 5.35718 11.0924C5.35718 12.1366 6.20362 12.9831 7.24788 12.9831H36.8697V26.2183C36.8697 27.2627 37.7162 28.109 38.7604 28.109H53.4649L56.2184 31.6561V41.4074H50.9873C49.9429 41.4074 49.0966 42.2538 49.0966 43.2981C49.0966 44.3424 49.943 45.1888 50.9873 45.1888H58.1091C59.1535 45.1888 59.9998 44.3423 60 43.2981V31.0084C60 30.5886 59.86 30.1802 59.6029 29.8487Z" fill="#521010"/>
<path d="M13.6765 31.8276H4.97896C3.93458 31.8276 3.08826 32.6741 3.08826 33.7183C3.08826 34.7627 3.9347 35.609 4.97896 35.609H13.6764C14.7208 35.609 15.5671 34.7626 15.5671 33.7183C15.5672 32.6741 14.7208 31.8276 13.6765 31.8276Z" fill="#521010"/>
<path d="M18.0252 24.3906H1.8907C0.846445 24.3906 0 25.2371 0 26.2814C0 27.3258 0.846445 28.1721 1.8907 28.1721H18.0252C19.0696 28.1721 19.9159 27.3257 19.9159 26.2814C19.9159 25.2372 19.0696 24.3906 18.0252 24.3906Z" fill="#521010"/>
<path d="M21.1135 16.9541H4.97896C3.93459 16.9541 3.08826 17.8005 3.08826 18.8448C3.08826 19.8892 3.9347 20.7355 4.97896 20.7355H21.1135C22.1578 20.7355 23.0042 19.8891 23.0042 18.8448C23.0043 17.8005 22.1578 16.9541 21.1135 16.9541Z" fill="#521010"/>
</svg>
