<svg width="14" height="14" viewBox="0 0 14 14" fill="none" xmlns="http://www.w3.org/2000/svg">
<g opacity="0.4" clip-path="url(#clip0)">
<path d="M4.8125 5.90542H9.1875C9.42922 5.90542 9.625 5.70964 9.625 5.46792V5.03042C9.625 4.7887 9.42922 4.59292 9.1875 4.59292H4.8125C4.57078 4.59292 4.375 4.7887 4.375 5.03042V5.46792C4.375 5.70964 4.57078 5.90542 4.8125 5.90542ZM4.375 8.09292C4.375 8.33464 4.57078 8.53042 4.8125 8.53042H9.1875C9.42922 8.53042 9.625 8.33464 9.625 8.09292V7.65542C9.625 7.4137 9.42922 7.21792 9.1875 7.21792H4.8125C4.57078 7.21792 4.375 7.4137 4.375 7.65542V8.09292ZM7 11.4051C6.55102 11.4051 6.10203 11.2667 5.71867 10.9897L0 6.85862V12.6867C0 13.4116 0.587617 13.9992 1.3125 13.9992H12.6875C13.4124 13.9992 14 13.4116 14 12.6867V6.85862L8.28133 10.9897C7.89797 11.2664 7.44898 11.4051 7 11.4051ZM13.4971 4.45483C13.2552 4.26507 13.0257 4.08651 12.6875 3.83112V2.62417C12.6875 1.89929 12.0999 1.31167 11.375 1.31167H9.25449C9.17137 1.25151 9.09398 1.19518 9.00731 1.13229C8.54766 0.796786 7.63438 -0.0104015 7 -0.000831162C6.36562 -0.0104015 5.45262 0.796786 4.9927 1.13229C4.90602 1.19518 4.82863 1.25151 4.74551 1.31167H2.625C1.90012 1.31167 1.3125 1.89929 1.3125 2.62417V3.83112C0.974258 4.08624 0.744844 4.26507 0.502852 4.45483C0.346215 4.57759 0.219547 4.73436 0.13243 4.91328C0.0453121 5.09221 2.69556e-05 5.2886 0 5.48761L0 5.77882L2.625 7.67511V2.62417H11.375V7.67511L14 5.77882V5.48761C14 5.08456 13.8146 4.70366 13.4971 4.45483Z" fill="white"/>
</g>
<defs>
<clipPath id="clip0">
<rect width="14" height="14" fill="white"/>
</clipPath>
</defs>
</svg>
