<svg width="31" height="31" viewBox="0 0 31 31" fill="none" xmlns="http://www.w3.org/2000/svg">
<g opacity="0.5" clip-path="url(#clip0)">
<path d="M30.9698 9.11409C30.8971 7.46694 30.6308 6.33454 30.2492 5.35329C29.8556 4.31173 29.25 3.37922 28.4566 2.60402C27.6814 1.81676 26.7427 1.20502 25.7132 0.817543C24.7263 0.435975 23.5998 0.169612 21.9527 0.0969885C20.2932 0.0182149 19.7664 0 15.5576 0C11.3488 0 10.8219 0.0182149 9.16864 0.0908381C7.52149 0.163461 6.3891 0.430061 5.40809 0.811392C4.36629 1.20502 3.43379 1.81061 2.65859 2.60402C1.87133 3.37922 1.25982 4.31788 0.872107 5.34738C0.49054 6.33454 0.224177 7.46079 0.151554 9.10793C0.0727803 10.7674 0.0545654 11.2942 0.0545654 15.503C0.0545654 19.7119 0.0727803 20.2387 0.145403 21.892C0.218027 23.5391 0.484626 24.6715 0.866193 25.6528C1.25982 26.6943 1.87133 27.6268 2.65859 28.402C3.43379 29.1893 4.37244 29.801 5.40194 30.1885C6.3891 30.5701 7.51534 30.8364 9.16273 30.9091C10.8158 30.9819 11.3428 30.9999 15.5517 30.9999C19.7605 30.9999 20.2873 30.9819 21.9406 30.9091C23.5878 30.8364 24.7202 30.5701 25.7012 30.1885C27.7845 29.383 29.4317 27.7359 30.2371 25.6528C30.6185 24.6656 30.8851 23.5391 30.9577 21.892C31.0303 20.2387 31.0485 19.7119 31.0485 15.503C31.0485 11.2942 31.0424 10.7674 30.9698 9.11409ZM28.1781 21.7709C28.1114 23.2848 27.8571 24.1024 27.6452 24.6474C27.1243 25.9979 26.0524 27.0697 24.7019 27.5906C24.1569 27.8026 23.3335 28.0569 21.8254 28.1234C20.1903 28.1962 19.6999 28.2142 15.5637 28.2142C11.4275 28.2142 10.931 28.1962 9.30182 28.1234C7.78786 28.0569 6.97032 27.8026 6.42529 27.5906C5.75323 27.3423 5.14149 26.9486 4.64496 26.4339C4.13021 25.9312 3.73658 25.3256 3.48819 24.6535C3.27624 24.1085 3.02194 23.2848 2.95547 21.777C2.88261 20.1419 2.86463 19.6513 2.86463 15.5151C2.86463 11.3789 2.88261 10.8824 2.95547 9.25342C3.02194 7.73945 3.27624 6.92191 3.48819 6.37688C3.73658 5.70458 4.13021 5.09308 4.65111 4.59631C5.15356 4.08156 5.75914 3.68793 6.43144 3.43978C6.97647 3.22783 7.80016 2.97353 9.30797 2.90682C10.9431 2.83419 11.4337 2.81598 15.5696 2.81598C19.712 2.81598 20.2024 2.83419 21.8316 2.90682C23.3455 2.97353 24.1631 3.22783 24.7081 3.43978C25.3801 3.68793 25.9919 4.08156 26.4884 4.59631C27.0032 5.099 27.3968 5.70458 27.6452 6.37688C27.8571 6.92191 28.1114 7.74536 28.1781 9.25342C28.2508 10.8885 28.269 11.3789 28.269 15.5151C28.269 19.6513 28.2508 20.1358 28.1781 21.7709Z" fill="white"/>
<path d="M15.5575 7.53949C11.161 7.53949 7.59399 11.1063 7.59399 15.503C7.59399 19.8996 11.161 23.4664 15.5575 23.4664C19.9541 23.4664 23.5209 19.8996 23.5209 15.503C23.5209 11.1063 19.9541 7.53949 15.5575 7.53949ZM15.5575 20.6687C12.7053 20.6687 10.3918 18.3554 10.3918 15.503C10.3918 12.6505 12.7053 10.3373 15.5575 10.3373C18.4099 10.3373 20.7232 12.6505 20.7232 15.503C20.7232 18.3554 18.4099 20.6687 15.5575 20.6687Z" fill="white"/>
<path d="M25.6954 7.22465C25.6954 8.25131 24.8629 9.08376 23.836 9.08376C22.8094 9.08376 21.9769 8.25131 21.9769 7.22465C21.9769 6.19775 22.8094 5.36554 23.836 5.36554C24.8629 5.36554 25.6954 6.19775 25.6954 7.22465Z" fill="white"/>
</g>
<defs>
<clipPath id="clip0">
<rect width="31" height="31" fill="white"/>
</clipPath>
</defs>
</svg>
