<svg width="24" height="24" viewBox="0 0 24 24" fill="none" xmlns="http://www.w3.org/2000/svg">
<g clip-path="url(#clip0)">
<path d="M23.725 12.6635C23.7248 12.6638 23.7245 12.6641 23.7242 12.6644L18.8256 17.5394C18.4586 17.9046 17.865 17.9032 17.4997 17.5362C17.1345 17.1692 17.1359 16.5756 17.5028 16.2104L20.7918 12.9374H0.9375C0.419719 12.9374 0 12.5177 0 11.9999C0 11.4821 0.419719 11.0624 0.9375 11.0624H20.7917L17.5029 7.78939C17.1359 7.42414 17.1345 6.83056 17.4998 6.46358C17.865 6.0965 18.4587 6.09523 18.8256 6.46039L23.7242 11.3354C23.7245 11.3357 23.7248 11.336 23.7251 11.3363C24.0923 11.7027 24.0911 12.2982 23.725 12.6635Z" fill="#521010"/>
</g>
<defs>
<clipPath id="clip0">
<rect width="24" height="24" fill="white" transform="matrix(1 0 0 -1 0 24)"/>
</clipPath>
</defs>
</svg>
